<?xml version="1.0" standalone="no"?>
<!DOCTYPE svg PUBLIC "-//W3C//DTD SVG 20010904//EN"
 "http://www.w3.org/TR/2001/REC-SVG-20010904/DTD/svg10.dtd">
<svg version="1.0" xmlns="http://www.w3.org/2000/svg"
 width="256.000000pt" height="256.000000pt" viewBox="0 0 256.000000 256.000000"
 preserveAspectRatio="xMidYMid meet">

<g transform="translate(0.000000,256.000000) scale(0.100000,-0.100000)"
fill="#000000" stroke="none">
<path d="M1184 2257 c-44 -46 -105 -118 -136 -158 -57 -76 -136 -201 -141
-221 -2 -12 122 -49 136 -41 4 2 7 11 7 19 0 8 9 31 19 52 84 163 308 163 392
0 10 -21 19 -44 19 -52 0 -8 4 -17 8 -20 10 -6 123 22 135 33 10 10 -85 164
-160 258 -34 43 -93 109 -131 146 l-69 68 -79 -84z"/>
<path d="M1247 1122 c-32 -36 -41 -103 -41 -303 0 -123 4 -202 10 -210 6 -8
19 -53 29 -101 9 -49 21 -88 26 -88 4 0 15 35 24 78 9 42 22 88 28 101 8 16
12 89 12 215 0 154 -3 202 -18 248 -20 65 -46 87 -70 60z"/>
<path d="M1735 1033 c-10 -68 -62 -228 -97 -296 -16 -32 -28 -62 -26 -67 7
-17 300 -272 306 -265 4 4 6 79 6 168 -2 179 -19 287 -58 372 -26 56 -90 135
-111 135 -8 0 -16 -19 -20 -47z"/>
<path d="M742 1021 c-79 -99 -115 -261 -110 -490 l3 -134 147 137 147 137 -19
32 c-31 53 -76 176 -100 272 -12 50 -24 91 -25 93 -2 2 -21 -19 -43 -47z"/>
</g>
</svg>
